Coordinates
version=1
nRows=13
nColumns=63
inDegrees=yes

Units are S.I. units (second, meters, Newtons, ...)
If the header above contains a line with 'inDegrees', this indicates whether rotational values are in degrees (yes) or radians (no).

endheader
time	pelvis_tilt	pelvis_list	pelvis_rotation	pelvis_tx	pelvis_ty	pelvis_tz	hip_flexion_r	hip_adduction_r	hip_rotation_r	knee_angle_r	knee_angle_r_beta	ankle_angle_r	subtalar_angle_r	mtp_angle_r	hip_flexion_l	hip_adduction_l	hip_rotation_l	knee_angle_l	knee_angle_l_beta	ankle_angle_l	subtalar_angle_l	mtp_angle_l	L5_S1_Flex_Ext	L5_S1_Lat_Bending	L5_S1_axial_rotation	L4_L5_Flex_Ext	L4_L5_Lat_Bending	L4_L5_axial_rotation	L3_L4_Flex_Ext	L3_L4_Lat_Bending	L3_L4_axial_rotation	L2_L3_Flex_Ext	L2_L3_Lat_Bending	L2_L3_axial_rotation	L1_L2_Flex_Ext	L1_L2_Lat_Bending	L1_L2_axial_rotation	L1_T12_Flex_Ext	L1_T12_Lat_Bending	L1_T12_axial_rotation	Abs_r3	Abs_r2	Abs_r1	Abs_t1	Abs_t2	neck_flexion	neck_bending	neck_rotation	arm_flex_r	arm_add_r	arm_rot_r	elbow_flex_r	pro_sup_r	wrist_flex_r	wrist_dev_r	arm_flex_l	arm_add_l	arm_rot_l	elbow_flex_l	pro_sup_l	wrist_flex_l	wrist_dev_l
4.333333	3.942226	-5.961587	97.450982	0.129227	0.956228	0.382327	1.078925	5.134439	-16.305556	4.209089	0.073462	29.598582	15.514534	0.000000	0.766521	-6.689506	-8.877480	7.339855	0.128105	29.259899	-2.570122	0.000000	0.128375	0.432196	1.133059	0.238406	0.574820	1.203875	0.210908	1.050840	1.203875	0.146720	1.050840	0.991427	0.119209	0.881333	0.920611	0.073354	0.669471	0.849794	0.916971	4.889083	6.301735	0.000000	0.000000	19.080094	-8.121290	3.936625	-3.562078	-15.584566	36.371392	30.713448	82.645336	-6.341500	6.011436	8.889087	-12.569677	80.455183	20.126742	70.354950	-14.077343	-14.008711
4.350000	3.990102	-6.049878	97.279954	0.129595	0.956134	0.382442	1.305740	5.147694	-16.333211	4.436193	0.077426	29.692803	15.614861	0.000000	0.844397	-6.744964	-9.090335	7.363559	0.128518	29.291401	-2.542544	0.000000	0.135161	0.437042	1.128223	0.251007	0.581265	1.198737	0.222055	1.062623	1.198737	0.154475	1.062623	0.987195	0.125510	0.891215	0.916681	0.077231	0.676978	0.846167	0.965439	4.943903	6.274836	0.000000	0.000000	19.336130	-7.993384	4.351574	-3.455038	-15.658050	36.765714	30.697808	82.522585	-6.454939	5.599918	8.617427	-12.228001	80.809519	19.436702	67.853369	-13.528694	-13.943794
4.366667	4.037718	-6.114485	97.104142	0.129928	0.956049	0.382544	1.540694	5.145451	-16.451033	4.750334	0.082909	29.824355	15.759365	0.000000	0.894096	-6.800124	-9.314104	7.388877	0.128960	29.308041	-2.566071	0.000000	0.137680	0.442888	1.126534	0.255686	0.589041	1.196943	0.226195	1.076837	1.196943	0.157355	1.076837	0.985718	0.127850	0.903137	0.915309	0.078671	0.686033	0.844901	0.983436	5.010034	6.265446	0.000000	0.000000	19.557222	-7.867737	4.784274	-3.363641	-15.747373	37.144399	30.701172	82.301833	-6.505028	5.227831	8.312828	-11.875584	80.887406	18.828047	65.400710	-12.952902	-13.887620
4.383333	4.078729	-6.178567	96.953211	0.130217	0.955949	0.382609	1.801478	5.120175	-16.669049	5.142883	0.089760	29.975772	15.933066	0.000000	0.939242	-6.845982	-9.515968	7.404651	0.129236	29.277340	-2.636726	0.000000	0.140950	0.448305	1.119589	0.261758	0.596246	1.189563	0.231567	1.090009	1.189563	0.161092	1.090009	0.979640	0.130886	0.914184	0.909666	0.080539	0.694424	0.839692	1.006792	5.071316	6.226819	0.000000	0.000000	19.720244	-7.746520	5.257080	-3.267651	-15.829222	37.571359	30.673965	82.023968	-6.541693	4.855959	7.938280	-11.542051	80.537982	18.333611	63.117850	-12.194924	-13.794712
4.400000	4.108197	-6.233338	96.826876	0.130478	0.955827	0.382630	2.077882	5.068627	-16.997084	5.616538	0.098027	30.160783	16.135875	0.000000	0.976382	-6.882789	-9.690339	7.428229	0.129647	29.221902	-2.727151	0.000000	0.143824	0.452453	1.104882	0.267095	0.601762	1.173937	0.236288	1.100094	1.173937	0.164376	1.100094	0.966771	0.133555	0.922642	0.897716	0.082181	0.700850	0.828661	1.027319	5.118238	6.145020	0.000000	0.000000	19.827276	-7.619366	5.747839	-3.149063	-15.908895	38.127288	30.619569	81.735347	-6.674485	4.430313	7.467724	-11.261535	79.649393	17.992893	61.096769	-11.238514	-13.671934
4.416667	4.129747	-6.277513	96.723091	0.130675	0.955710	0.382662	2.360177	4.995570	-17.384688	6.141878	0.107196	30.344047	16.346309	0.000000	1.008961	-6.914314	-9.922068	7.461647	0.130230	29.149036	-2.748622	0.000000	0.146054	0.456628	1.096948	0.271237	0.607315	1.165508	0.239952	1.110245	1.165508	0.166925	1.110245	0.959830	0.135626	0.931156	0.891270	0.083455	0.707317	0.822711	1.043249	5.165467	6.100897	0.000000	0.000000	19.893972	-7.525577	6.206061	-3.079661	-15.985601	38.574724	30.580006	81.444002	-6.835249	3.995670	7.149293	-10.999153	79.138902	17.637346	59.095204	-10.361620	-13.654205
4.433333	4.137773	-6.324320	96.661126	0.130805	0.955567	0.382681	2.653735	4.897069	-17.846310	6.706161	0.117045	30.545942	16.579841	0.000000	1.054083	-6.931573	-10.123562	7.508814	0.131054	29.066053	-2.754412	0.000000	0.149681	0.459181	1.084718	0.277972	0.610711	1.152512	0.245911	1.116453	1.152512	0.171070	1.116453	0.949128	0.138994	0.936362	0.881333	0.085528	0.711271	0.813538	1.069155	5.194347	6.032874	0.000000	0.000000	19.940841	-7.440699	6.632957	-3.040796	-16.044003	38.911483	30.557811	81.336352	-7.054782	3.583503	6.838267	-10.785545	78.414879	17.357520	57.499173	-9.438953	-13.644641
4.450000	4.135800	-6.343782	96.608673	0.130897	0.955462	0.382692	2.907999	4.790669	-18.287658	7.257516	0.126668	30.729350	16.795758	0.000000	1.066701	-6.943526	-10.395228	7.552042	0.131808	28.983270	-2.651953	0.000000	0.150642	0.461344	1.080381	0.279758	0.613588	1.147905	0.247490	1.121712	1.147905	0.172169	1.121712	0.945334	0.139886	0.940773	0.877810	0.086077	0.714622	0.810286	1.076022	5.218818	6.008758	0.000000	0.000000	19.933849	-7.379176	7.006758	-3.013729	-16.115657	39.278763	30.543900	81.178639	-7.378613	3.091358	6.723262	-10.603118	78.432161	17.071820	55.652693	-8.599638	-13.732134
4.466667	4.118774	-6.349538	96.582143	0.130936	0.955373	0.382683	3.132390	4.671176	-18.713429	7.787489	0.135917	30.918004	17.009126	0.000000	1.065751	-6.937425	-10.617835	7.594038	0.132541	28.897532	-2.553551	0.000000	0.150997	0.461633	1.077426	0.280416	0.613972	1.144765	0.248073	1.122414	1.144765	0.172574	1.122414	0.942748	0.140216	0.941362	0.875408	0.086280	0.715069	0.808069	1.078556	5.222083	5.992319	0.000000	0.000000	19.885943	-7.332496	7.297617	-2.993410	-16.190266	39.633349	30.548352	81.101727	-7.757661	2.608864	6.671471	-10.475674	78.430638	16.858892	54.305085	-7.899581	-13.818126
4.483333	4.089638	-6.344031	96.577799	0.130937	0.955305	0.382659	3.316000	4.550443	-19.063746	8.259571	0.144157	31.096963	17.186067	0.000000	1.055932	-6.919268	-10.842652	7.638980	0.133325	28.836899	-2.392355	0.000000	0.150836	0.460077	1.074914	0.280117	0.611902	1.142096	0.247808	1.118631	1.142096	0.172390	1.118631	0.940549	0.140066	0.938189	0.873367	0.086188	0.712659	0.806185	1.077404	5.204481	5.978347	0.000000	0.000000	19.793575	-7.301949	7.497698	-2.960793	-16.269461	39.994371	30.572854	81.125729	-8.153392	2.195961	6.677722	-10.410221	78.464541	16.723402	53.400289	-7.437714	-13.948195
4.500000	4.049876	-6.328406	96.621078	0.130861	0.955250	0.382600	3.444906	4.435521	-19.347694	8.642494	0.150840	31.263108	17.332078	0.000000	1.036678	-6.886487	-10.986507	7.673783	0.133933	28.807118	-2.215579	0.000000	0.150278	0.456788	1.068842	0.279081	0.607528	1.135645	0.246892	1.110633	1.135645	0.171753	1.110633	0.935237	0.139548	0.931481	0.868434	0.085869	0.707564	0.801632	1.073421	5.167273	5.944580	0.000000	0.000000	19.652531	-7.300444	7.586912	-2.954686	-16.331046	40.158071	30.650521	81.358789	-8.447740	1.956807	6.716137	-10.411301	78.426175	16.688564	53.053758	-7.231567	-14.094039
4.516667	3.990308	-6.307932	96.671656	0.130789	0.955211	0.382517	3.515286	4.322961	-19.504974	8.912349	0.155550	31.411661	17.433662	0.000000	1.011237	-6.837716	-11.189474	7.711150	0.134585	28.830175	-1.920371	0.000000	0.149601	0.450114	1.068937	0.277824	0.598651	1.135745	0.245779	1.094406	1.135745	0.170979	1.094406	0.935320	0.138919	0.917872	0.868511	0.085482	0.697226	0.801702	1.068583	5.091775	5.945105	0.000000	0.000000	19.456849	-7.338705	7.520467	-2.933644	-16.394758	40.342934	30.751957	81.442502	-8.691485	1.855865	6.883086	-10.514508	78.849859	16.759661	52.774164	-7.320541	-14.297940
4.533333	3.921301	-6.278107	96.743633	0.130692	0.955183	0.382379	3.520089	4.224085	-19.574831	9.066420	0.158239	31.532386	17.499337	0.000000	0.969897	-6.769715	-11.246635	7.731833	0.134946	28.847640	-1.780526	0.000000	0.147944	0.441734	1.061777	0.274747	0.587506	1.128138	0.243057	1.074032	1.128138	0.169085	1.074032	0.929055	0.137381	0.900784	0.862694	0.084535	0.684246	0.796333	1.056748	4.996982	5.905285	0.000000	0.000000	19.213192	-7.389291	7.388983	-2.904668	-16.424490	40.344303	30.877309	81.754432	-8.780158	1.961925	6.944760	-10.684987	78.662868	16.966528	53.303428	-7.543566	-14.509289
